<?xml version="1.0" encoding="UTF-8"?>
<svg id="Layer_1" data-name="Layer 1" xmlns="http://www.w3.org/2000/svg" viewBox="0 0 42.42 42.3">
  <defs>
    <style>
      .cls-1 {
        fill: #295a2b;
        stroke-width: 0px;
      }
    </style>
  </defs>
  <g id="_5xZbUv.tif" data-name="5xZbUv.tif">
    <g>
      <path class="cls-1" d="m20.97,0c.49,0,.89-.02,1.29,0,.76.04,1.53.08,2.28.21,1.18.2,2.35.45,3.49.83,1.46.49,2.84,1.15,4.15,1.95.99.6,1.92,1.27,2.8,2.01.59.5,1.16,1.02,1.68,1.58.96,1.06,1.83,2.18,2.58,3.4.47.77.92,1.56,1.29,2.38.57,1.24,1.01,2.54,1.32,3.87.18.78.31,1.58.41,2.37.15,1.16.18,2.33.14,3.49-.03.98-.15,1.95-.34,2.91-.3,1.54-.76,3.03-1.38,4.47-.55,1.27-1.22,2.48-2,3.62-.49.71-1.02,1.39-1.6,2.04-.51.58-1.06,1.12-1.62,1.65-.63.6-1.33,1.13-2.04,1.64-.85.61-1.74,1.14-2.67,1.6-1.18.59-2.42,1.08-3.69,1.44-.68.19-1.37.34-2.05.49-.49.11-1.01.12-1.51.19-1.07.15-2.15.12-3.23.11-.35,0-.7-.09-1.06-.09-.54,0-1.05-.12-1.57-.2-1.36-.2-2.67-.57-3.96-1.06-.73-.28-1.46-.58-2.15-.94-1.07-.56-2.09-1.21-3.07-1.93-1.14-.84-2.14-1.83-3.11-2.85-.54-.57-1.01-1.21-1.47-1.86-.71-1-1.33-2.05-1.85-3.16-.67-1.44-1.21-2.93-1.54-4.5-.16-.76-.27-1.52-.38-2.28-.04-.27-.07-.56-.07-.84,0-.58-.09-1.16-.06-1.74.06-.89.1-1.77.22-2.66.15-1.08.38-2.15.69-3.2.42-1.4.99-2.74,1.68-4.02.51-.94,1.09-1.82,1.74-2.67.65-.86,1.35-1.67,2.13-2.41,1.12-1.06,2.33-2.01,3.65-2.82.75-.46,1.52-.87,2.32-1.23,1.25-.57,2.55-1.02,3.89-1.32.82-.19,1.64-.3,2.47-.41C19.55,0,20.3.02,20.97,0Zm13.88,34.83c.1.03.17.06.24.08.36.08.7.07.98-.2.41-.4.75-.85,1.1-1.31.62-.81,1.18-1.67,1.69-2.56.53-.93.99-1.89,1.35-2.89.46-1.25.8-2.53.98-3.86.1-.74.17-1.49.2-2.24.04-1.11-.06-2.21-.21-3.31-.1-.71-.22-1.41-.38-2.11-.25-1.09-.6-2.15-1.04-3.19-.42-1.01-.92-1.98-1.51-2.9-.51-.81-1.09-1.57-1.71-2.3-.74-.89-1.57-1.68-2.45-2.42-.77-.65-1.59-1.22-2.46-1.74-1.15-.7-2.36-1.28-3.64-1.73-1.21-.42-2.44-.76-3.72-.93-.73-.1-1.45-.22-2.18-.22-.06,0-.12,0-.17,0-.44-.1-.9-.08-1.34-.03-.71.08-1.43.07-2.14.2-.42.08-.87.11-1.29.21-.96.22-1.91.47-2.83.82-1.48.55-2.88,1.27-4.2,2.13-.69.45-1.33.97-1.98,1.47-.47.36-.89.8-1.31,1.22-.33.33-.66.67-.96,1.04-.35.44-.71.86-1.04,1.32-.76,1.08-1.44,2.22-1.98,3.43-.32.71-.6,1.43-.84,2.17-.34,1.05-.57,2.12-.73,3.21-.08.59-.17,1.19-.19,1.79-.03.86-.05,1.72.03,2.59.06.66.14,1.31.23,1.96.14.97.39,1.91.68,2.84.32,1.01.73,1.98,1.22,2.92.28.54.58,1.08.91,1.59.49.78,1.04,1.52,1.62,2.24.38.47.84.82,1.49.81.07,0,.14,0,.22-.04.08-.04.12-.05.05-.15-.1-.15-.23-.26-.34-.4-.51-.67-1.01-1.34-1.45-2.06-.57-.94-1.05-1.91-1.43-2.94-.36-.96-.64-1.95-.84-2.96-.14-.73-.27-1.46-.29-2.2,0-.59-.09-1.18-.03-1.78.06-.69.09-1.38.18-2.07.12-.89.33-1.76.59-2.62.36-1.2.84-2.36,1.45-3.47.72-1.31,1.6-2.5,2.6-3.6.59-.66,1.26-1.24,1.95-1.8.82-.66,1.69-1.23,2.6-1.74.91-.5,1.87-.91,2.85-1.24.83-.27,1.68-.48,2.55-.64.68-.13,1.37-.23,2.05-.26,1.44-.05,2.88-.06,4.31.2.71.13,1.42.27,2.11.47,1.59.46,3.09,1.15,4.48,2.05.81.53,1.58,1.1,2.3,1.75.69.62,1.36,1.27,1.96,1.98.61.73,1.14,1.51,1.63,2.33.52.88.95,1.8,1.3,2.75.46,1.28.8,2.59.99,3.94.11.79.17,1.59.22,2.38.03.41-.03.83-.04,1.24-.02.75-.11,1.5-.25,2.23-.17.88-.41,1.74-.72,2.58-.53,1.44-1.22,2.8-2.07,4.08-.42.63-.87,1.24-1.35,1.87Zm-13.61-22.09c.96-.09,1.91.05,2.85.28.89.22,1.75.56,2.56,1.03.8.47,1.55,1,2.21,1.65.77.75,1.44,1.59,1.99,2.52.66,1.12,1.06,2.33,1.17,3.61.09,1.07.04,2.15-.21,3.21-.42,1.76-1.28,3.28-2.5,4.6-.64.69-1.37,1.27-2.12,1.83-.48.36-1.05.48-1.62.35-.84-.19-1.13-1.04-.96-1.81.11-.46.45-.74.85-.95.64-.33,1.21-.76,1.69-1.3.57-.64,1.03-1.35,1.36-2.14.35-.84.52-1.71.56-2.61.02-.45-.04-.89-.11-1.33-.11-.71-.33-1.38-.65-2.01-.48-.94-1.19-1.7-2-2.37-.71-.58-1.5-1.02-2.36-1.31-.46-.15-.92-.28-1.41-.35-.39-.06-.78-.15-1.17-.15-.58,0-1.16.09-1.73.21-.65.13-1.27.34-1.87.62-1.1.52-2.05,1.23-2.82,2.18-.52.63-.95,1.31-1.23,2.08-.38,1.05-.51,2.12-.36,3.24.1.76.33,1.47.65,2.16.21.44.47.86.72,1.27.66,1.07,1.31,2.14,1.97,3.2.45.72.89,1.45,1.34,2.17.42.68.85,1.36,1.28,2.03.13.21.32.31.58.3.3-.01.6,0,.9,0,.17,0,.2-.04.12-.2-.22-.44-.5-.84-.76-1.25-.58-.95-1.18-1.89-1.77-2.83-.78-1.25-1.57-2.51-2.36-3.75-.38-.6-.75-1.2-1-1.87-.4-1.04-.45-2.12-.28-3.2.1-.64.33-1.25.68-1.82.5-.82,1.13-1.53,1.91-2.09.93-.67,1.99-1.02,3.12-1.13.7-.07,1.4-.03,2.1.1.61.12,1.21.26,1.76.54.67.33,1.27.76,1.76,1.34.51.61.91,1.27,1.17,2.02.3.87.49,1.75.4,2.68-.05.47-.11.93-.28,1.37-.43,1.13-1.11,2.11-2.07,2.85-.54.42-1.13.71-1.87.56-.68-.14-1.28-.94-1.06-1.72.13-.46.48-.74.83-1.02.36-.29.76-.54,1.03-.92.49-.7.56-1.48.36-2.3-.22-.89-.64-1.65-1.43-2.15-.45-.29-.94-.43-1.47-.53-.59-.1-1.14,0-1.68.16-.95.3-1.64.93-2.04,1.85-.39.9-.38,1.81.07,2.68.58,1.12,1.28,2.17,1.95,3.24.81,1.3,1.63,2.6,2.44,3.9.61.97,1.22,1.94,1.8,2.93.23.39.52.57.98.54.49-.03.98,0,1.47,0,.32,0,.31,0,.22-.29-.1-.36-.24-.72-.12-1.11.14-.47.48-.75.86-.98,1.29-.79,2.47-1.7,3.4-2.92.67-.88,1.2-1.84,1.61-2.86.38-.95.61-1.95.69-2.96.07-.86.06-1.73-.09-2.6-.22-1.29-.63-2.5-1.27-3.64-.73-1.3-1.66-2.42-2.82-3.36-.85-.69-1.78-1.25-2.78-1.69-1.31-.58-2.7-.88-4.11-1.03-.68-.07-1.37-.04-2.05,0-.48.03-.96.13-1.43.22-1.07.21-2.1.54-3.08,1.02-.79.39-1.52.88-2.21,1.43-.76.61-1.44,1.3-2.03,2.06-.65.84-1.22,1.72-1.63,2.71-.45,1.07-.73,2.19-.79,3.34-.05.86-.02,1.73.15,2.59.18.92.45,1.8.84,2.65.46,1.01,1.05,1.95,1.65,2.88.92,1.43,1.85,2.85,2.79,4.27.11.17.27.28.5.27.29-.01.58,0,.87,0,.18,0,.21-.05.11-.2-.35-.54-.69-1.09-1.03-1.63-.76-1.21-1.52-2.41-2.28-3.62-.6-.96-1.23-1.9-1.67-2.95-.38-.92-.58-1.88-.62-2.88-.04-.96.05-1.91.28-2.85.2-.85.48-1.67.88-2.43.36-.69.79-1.33,1.31-1.92.55-.62,1.13-1.2,1.81-1.69.6-.43,1.25-.8,1.93-1.1.6-.27,1.22-.49,1.86-.64.93-.22,1.86-.35,2.84-.27Zm9.84,22.19c.37,0,.73-.01,1.1,0,.4.02.71-.13.97-.41.43-.47.84-.95,1.23-1.45.71-.9,1.32-1.86,1.84-2.87.23-.45.43-.93.62-1.4.3-.73.53-1.49.68-2.26.13-.64.24-1.27.3-1.92.05-.51.07-1.03.07-1.53,0-.44-.02-.9-.07-1.36-.06-.6-.15-1.19-.25-1.78-.22-1.36-.63-2.66-1.2-3.9-.53-1.16-1.15-2.27-1.96-3.26-.54-.67-1.09-1.32-1.73-1.9-.82-.75-1.68-1.44-2.61-2.03-.99-.63-2.04-1.14-3.15-1.54-.92-.33-1.85-.6-2.82-.76-.62-.11-1.25-.22-1.87-.25-.71-.04-1.42-.03-2.14.03-.9.08-1.79.21-2.67.41-1.06.25-2.09.59-3.07,1.06-.67.32-1.33.66-1.96,1.06-.87.55-1.7,1.17-2.45,1.87-.57.54-1.12,1.1-1.62,1.72-.66.8-1.23,1.65-1.73,2.56-.58,1.06-1.05,2.17-1.39,3.33-.32,1.09-.53,2.21-.61,3.34-.04.53-.06,1.07-.03,1.6.03.81.12,1.61.24,2.41.13.91.37,1.79.65,2.65.34,1.02.79,2,1.34,2.93.41.7.87,1.36,1.37,2,.3.38.63.72.94,1.09.26.32.56.59,1.01.6.78,0,1.56,0,2.35,0,.09,0,.19,0,.23-.07.05-.11-.09-.12-.15-.16-1.02-.66-1.97-1.4-2.78-2.32-.46-.52-.9-1.05-1.29-1.62-.52-.77-.95-1.59-1.29-2.45-.52-1.32-.83-2.69-.92-4.1-.03-.55-.09-1.1-.03-1.65.06-.57.06-1.15.12-1.73.08-.72.26-1.42.45-2.11.16-.56.39-1.1.63-1.64.28-.63.64-1.21,1.02-1.78.34-.5.73-.96,1.12-1.42.6-.71,1.29-1.34,2.01-1.92.5-.4,1.03-.76,1.58-1.1.9-.55,1.84-1.03,2.84-1.38.73-.26,1.47-.45,2.23-.58.63-.11,1.27-.19,1.91-.21.83-.03,1.67,0,2.5.09.66.08,1.32.18,1.97.31,1.17.24,2.3.63,3.38,1.13,1.06.49,2.05,1.1,2.96,1.83.86.69,1.64,1.47,2.32,2.34.73.92,1.34,1.92,1.83,2.99.62,1.38.94,2.82,1.05,4.31.05.74.04,1.49-.03,2.24-.06.58-.13,1.16-.24,1.73-.25,1.38-.7,2.69-1.38,3.92-.72,1.29-1.62,2.44-2.72,3.44-.67.61-1.38,1.15-2.11,1.67-.05.04-.14.06-.12.13.02.07.12.08.18.09.06.01.12,0,.17,0,.4,0,.8,0,1.2,0Zm-23.25,1.09c.14.2.3.29.43.42.6.55,1.26,1.04,1.93,1.5,1.27.87,2.62,1.59,4.06,2.12,1.62.59,3.29.99,5.01,1.15.48.04.95.11,1.43.12.45.01.91,0,1.36-.04.76-.07,1.51-.13,2.27-.23.65-.09,1.29-.22,1.93-.38.97-.25,1.91-.58,2.84-.97.99-.42,1.93-.93,2.84-1.5.96-.6,1.85-1.29,2.7-2.02.03-.02.07-.07.06-.1,0-.07-.07-.05-.12-.05-.05,0-.1,0-.15,0-8.76,0-17.52,0-26.28,0h-.32Z"/>
      <path class="cls-1" d="m23.76,23.22c.06,1.39-1.13,2.5-2.5,2.52-1.45.01-2.62-1.12-2.57-2.64.04-1.22.98-2.54,2.78-2.44,1.06.06,2.37,1.07,2.3,2.56Zm-3.6-.78c0,.27.27.56.52.56.23,0,.51-.31.51-.56,0-.28-.24-.52-.52-.52-.28,0-.51.24-.51.52Z"/>
    </g>
  </g>
</svg>